<svg width="4096" height="3255" viewBox="0 0 4096 3255" fill="none" xmlns="http://www.w3.org/2000/svg">
<rect width="4096" height="3255" fill="white"/>
<path d="M2419 929L1726 545.5L1733 537.5L2212 804.5L2429 923.5L2439 927.5L2459 935L2532 959.5L2539 962.5L3020.5 1205.5L3199.5 1299.5L3280.5 1347L3328.5 1382L3690 1566.5L3685 1575.5L3322 1390.5L3274 1355L3194 1307.5L3016 1214L2534.5 971.5L2529 969.5L2433.5 936L2427.5 933.5L2419 929Z" stroke="#FF0000"/>
<path d="M1149.5 1398.5L533 2336L525 2330L1141.5 1393L1152.5 1375L1220.5 1261L1269 1177.5L1302 1116.5L1351.5 1039.5L1576 702L1663.5 565L1672.5 570L1584 707.5L1360.5 1045L1311 1121L1278 1181.5L1229 1266L1161 1380L1149.5 1398.5Z" stroke="#FF0000"/>
</svg>
